<mxfile host="app.diagrams.net" agent="Mozilla/5.0 (Macintosh; Intel Mac OS X 10_15_7) AppleWebKit/537.36 (KHTML, like Gecko) Chrome/131.0.0.0 Safari/537.36" version="25.0.3">
  <diagram name="Page-1" id="fNTj8HokakC7HTLw_mWZ">
    <mxGraphModel dx="1841" dy="1056" grid="1" gridSize="10" guides="1" tooltips="1" connect="1" arrows="1" fold="1" page="1" pageScale="1" pageWidth="827" pageHeight="1169" math="0" shadow="0">
      <root>
        <mxCell id="0" />
        <mxCell id="1" parent="0" />
        <mxCell id="dvbaHdl6vfWLZvP0uJvd-22" style="edgeStyle=orthogonalEdgeStyle;rounded=0;orthogonalLoop=1;jettySize=auto;html=1;entryX=0;entryY=0.5;entryDx=0;entryDy=0;" edge="1" parent="1" source="dvbaHdl6vfWLZvP0uJvd-1" target="dvbaHdl6vfWLZvP0uJvd-15">
          <mxGeometry relative="1" as="geometry" />
        </mxCell>
        <mxCell id="dvbaHdl6vfWLZvP0uJvd-51" style="edgeStyle=orthogonalEdgeStyle;rounded=0;orthogonalLoop=1;jettySize=auto;html=1;" edge="1" parent="1" source="dvbaHdl6vfWLZvP0uJvd-1">
          <mxGeometry relative="1" as="geometry">
            <mxPoint x="310" y="630" as="targetPoint" />
          </mxGeometry>
        </mxCell>
        <mxCell id="dvbaHdl6vfWLZvP0uJvd-1" value="api-server" style="rounded=0;whiteSpace=wrap;html=1;rotation=0;" vertex="1" parent="1">
          <mxGeometry x="250" y="500" width="120" height="60" as="geometry" />
        </mxCell>
        <mxCell id="dvbaHdl6vfWLZvP0uJvd-4" value="" style="sketch=0;verticalLabelPosition=bottom;sketch=0;aspect=fixed;html=1;verticalAlign=top;strokeColor=none;fillColor=#000000;align=center;outlineConnect=0;pointerEvents=1;shape=mxgraph.citrix2.desktop;" vertex="1" parent="1">
          <mxGeometry x="65" y="523" width="64.67" height="50" as="geometry" />
        </mxCell>
        <mxCell id="dvbaHdl6vfWLZvP0uJvd-5" value="App" style="text;html=1;align=center;verticalAlign=middle;whiteSpace=wrap;rounded=0;" vertex="1" parent="1">
          <mxGeometry x="67.34" y="525" width="60" height="30" as="geometry" />
        </mxCell>
        <mxCell id="dvbaHdl6vfWLZvP0uJvd-15" value="" style="image;aspect=fixed;perimeter=ellipsePerimeter;html=1;align=center;shadow=0;dashed=0;spacingTop=3;image=img/lib/active_directory/databases.svg;" vertex="1" parent="1">
          <mxGeometry x="517" y="380" width="40.82" height="40" as="geometry" />
        </mxCell>
        <mxCell id="dvbaHdl6vfWLZvP0uJvd-16" value="Primary DB" style="text;html=1;align=center;verticalAlign=middle;resizable=0;points=[];autosize=1;strokeColor=none;fillColor=none;" vertex="1" parent="1">
          <mxGeometry x="497.41" y="420" width="80" height="30" as="geometry" />
        </mxCell>
        <mxCell id="dvbaHdl6vfWLZvP0uJvd-18" value="" style="image;sketch=0;aspect=fixed;html=1;points=[];align=center;fontSize=12;image=img/lib/mscae/Cache_Redis_Product.svg;" vertex="1" parent="1">
          <mxGeometry x="517" y="624" width="50" height="42" as="geometry" />
        </mxCell>
        <mxCell id="dvbaHdl6vfWLZvP0uJvd-19" value="Redis cache" style="text;html=1;align=center;verticalAlign=middle;whiteSpace=wrap;rounded=0;" vertex="1" parent="1">
          <mxGeometry x="512" y="671" width="60" height="30" as="geometry" />
        </mxCell>
        <mxCell id="dvbaHdl6vfWLZvP0uJvd-23" style="edgeStyle=orthogonalEdgeStyle;rounded=0;orthogonalLoop=1;jettySize=auto;html=1;entryX=-0.01;entryY=0.738;entryDx=0;entryDy=0;entryPerimeter=0;" edge="1" parent="1" source="dvbaHdl6vfWLZvP0uJvd-1" target="dvbaHdl6vfWLZvP0uJvd-18">
          <mxGeometry relative="1" as="geometry" />
        </mxCell>
        <mxCell id="dvbaHdl6vfWLZvP0uJvd-33" value="" style="outlineConnect=0;dashed=0;verticalLabelPosition=bottom;verticalAlign=top;align=center;html=1;shape=mxgraph.aws3.automation;fillColor=#759C3E;gradientColor=none;" vertex="1" parent="1">
          <mxGeometry x="278" y="200" width="59" height="60" as="geometry" />
        </mxCell>
        <mxCell id="dvbaHdl6vfWLZvP0uJvd-45" style="edgeStyle=orthogonalEdgeStyle;rounded=0;orthogonalLoop=1;jettySize=auto;html=1;" edge="1" parent="1" source="dvbaHdl6vfWLZvP0uJvd-34">
          <mxGeometry relative="1" as="geometry">
            <mxPoint x="307.9999999999998" y="490" as="targetPoint" />
          </mxGeometry>
        </mxCell>
        <mxCell id="dvbaHdl6vfWLZvP0uJvd-34" value="Generator" style="text;html=1;align=center;verticalAlign=middle;resizable=0;points=[];autosize=1;strokeColor=none;fillColor=none;" vertex="1" parent="1">
          <mxGeometry x="268" y="268" width="80" height="30" as="geometry" />
        </mxCell>
        <mxCell id="dvbaHdl6vfWLZvP0uJvd-37" value="" style="dashed=0;outlineConnect=0;html=1;align=center;labelPosition=center;verticalLabelPosition=bottom;verticalAlign=top;shape=mxgraph.weblogos.json" vertex="1" parent="1">
          <mxGeometry x="377" y="90" width="30" height="30" as="geometry" />
        </mxCell>
        <mxCell id="dvbaHdl6vfWLZvP0uJvd-38" value="" style="dashed=0;outlineConnect=0;html=1;align=center;labelPosition=center;verticalLabelPosition=bottom;verticalAlign=top;shape=mxgraph.weblogos.json" vertex="1" parent="1">
          <mxGeometry x="387" y="100" width="30" height="30" as="geometry" />
        </mxCell>
        <mxCell id="dvbaHdl6vfWLZvP0uJvd-39" value="" style="dashed=0;outlineConnect=0;html=1;align=center;labelPosition=center;verticalLabelPosition=bottom;verticalAlign=top;shape=mxgraph.weblogos.json" vertex="1" parent="1">
          <mxGeometry x="397" y="110" width="30" height="30" as="geometry" />
        </mxCell>
        <mxCell id="dvbaHdl6vfWLZvP0uJvd-40" value="" style="dashed=0;outlineConnect=0;html=1;align=center;labelPosition=center;verticalLabelPosition=bottom;verticalAlign=top;shape=mxgraph.weblogos.json" vertex="1" parent="1">
          <mxGeometry x="407" y="120" width="30" height="30" as="geometry" />
        </mxCell>
        <mxCell id="dvbaHdl6vfWLZvP0uJvd-41" value="" style="dashed=0;outlineConnect=0;html=1;align=center;labelPosition=center;verticalLabelPosition=bottom;verticalAlign=top;shape=mxgraph.weblogos.json" vertex="1" parent="1">
          <mxGeometry x="417" y="130" width="30" height="30" as="geometry" />
        </mxCell>
        <mxCell id="dvbaHdl6vfWLZvP0uJvd-43" style="edgeStyle=orthogonalEdgeStyle;rounded=0;orthogonalLoop=1;jettySize=auto;html=1;" edge="1" parent="1" source="dvbaHdl6vfWLZvP0uJvd-42">
          <mxGeometry relative="1" as="geometry">
            <mxPoint x="307" y="190" as="targetPoint" />
          </mxGeometry>
        </mxCell>
        <mxCell id="dvbaHdl6vfWLZvP0uJvd-42" value="" style="rounded=0;whiteSpace=wrap;html=1;fillColor=none;dashed=1;dashPattern=1 1;" vertex="1" parent="1">
          <mxGeometry x="352" y="80" width="135" height="90" as="geometry" />
        </mxCell>
        <mxCell id="dvbaHdl6vfWLZvP0uJvd-44" value="Match Data" style="text;html=1;align=center;verticalAlign=middle;resizable=0;points=[];autosize=1;strokeColor=none;fillColor=none;" vertex="1" parent="1">
          <mxGeometry x="385" y="178" width="80" height="30" as="geometry" />
        </mxCell>
        <mxCell id="dvbaHdl6vfWLZvP0uJvd-59" style="edgeStyle=orthogonalEdgeStyle;rounded=0;orthogonalLoop=1;jettySize=auto;html=1;" edge="1" parent="1" source="dvbaHdl6vfWLZvP0uJvd-46">
          <mxGeometry relative="1" as="geometry">
            <mxPoint x="309.21000000000004" y="760" as="targetPoint" />
          </mxGeometry>
        </mxCell>
        <mxCell id="dvbaHdl6vfWLZvP0uJvd-46" value="Queue" style="text;html=1;align=center;verticalAlign=middle;resizable=0;points=[];autosize=1;strokeColor=none;fillColor=none;" vertex="1" parent="1">
          <mxGeometry x="279.21" y="658.5" width="60" height="30" as="geometry" />
        </mxCell>
        <mxCell id="dvbaHdl6vfWLZvP0uJvd-48" value="" style="sketch=0;aspect=fixed;pointerEvents=1;shadow=0;dashed=0;html=1;strokeColor=none;labelPosition=center;verticalLabelPosition=bottom;verticalAlign=top;align=center;fillColor=#00188D;shape=mxgraph.azure.queue_generic" vertex="1" parent="1">
          <mxGeometry x="286.21" y="641.5" width="50" height="15" as="geometry" />
        </mxCell>
        <mxCell id="dvbaHdl6vfWLZvP0uJvd-63" style="edgeStyle=orthogonalEdgeStyle;rounded=0;orthogonalLoop=1;jettySize=auto;html=1;" edge="1" parent="1" source="dvbaHdl6vfWLZvP0uJvd-49">
          <mxGeometry relative="1" as="geometry">
            <mxPoint x="540" y="710" as="targetPoint" />
          </mxGeometry>
        </mxCell>
        <mxCell id="dvbaHdl6vfWLZvP0uJvd-49" value="core" style="rounded=1;whiteSpace=wrap;html=1;" vertex="1" parent="1">
          <mxGeometry x="268" y="780" width="80" height="50" as="geometry" />
        </mxCell>
        <mxCell id="dvbaHdl6vfWLZvP0uJvd-52" value="" style="endArrow=classic;html=1;rounded=0;" edge="1" parent="1">
          <mxGeometry width="50" height="50" relative="1" as="geometry">
            <mxPoint x="170" y="530" as="sourcePoint" />
            <mxPoint x="240" y="530" as="targetPoint" />
          </mxGeometry>
        </mxCell>
        <mxCell id="dvbaHdl6vfWLZvP0uJvd-53" value="This service is to watch the purchase rate and suggest the price change for a particular player stock in real time. Also this takes care background operations and cleanups" style="text;html=1;align=center;verticalAlign=middle;whiteSpace=wrap;rounded=0;" vertex="1" parent="1">
          <mxGeometry x="204" y="840" width="243" height="80" as="geometry" />
        </mxCell>
        <mxCell id="dvbaHdl6vfWLZvP0uJvd-54" value="This Generates the scores and simulates the match scenario." style="text;html=1;align=center;verticalAlign=middle;whiteSpace=wrap;rounded=0;" vertex="1" parent="1">
          <mxGeometry x="37.21" y="190" width="236.79" height="80" as="geometry" />
        </mxCell>
        <mxCell id="dvbaHdl6vfWLZvP0uJvd-57" value="" style="endArrow=classic;startArrow=classic;html=1;rounded=0;" edge="1" parent="1">
          <mxGeometry width="50" height="50" relative="1" as="geometry">
            <mxPoint x="170" y="550" as="sourcePoint" />
            <mxPoint x="240" y="550" as="targetPoint" />
          </mxGeometry>
        </mxCell>
        <mxCell id="dvbaHdl6vfWLZvP0uJvd-58" value="web socket&lt;br&gt;&amp;nbsp; &amp;nbsp; connection for &lt;br&gt;&amp;nbsp; trade screen&amp;nbsp;" style="text;html=1;align=center;verticalAlign=middle;resizable=0;points=[];autosize=1;strokeColor=none;fillColor=none;" vertex="1" parent="1">
          <mxGeometry x="145" y="555" width="110" height="60" as="geometry" />
        </mxCell>
        <mxCell id="dvbaHdl6vfWLZvP0uJvd-60" value="txns will be &lt;br&gt;pushed to &lt;br&gt;queue" style="text;html=1;align=center;verticalAlign=middle;resizable=0;points=[];autosize=1;strokeColor=none;fillColor=none;" vertex="1" parent="1">
          <mxGeometry x="307" y="564" width="80" height="60" as="geometry" />
        </mxCell>
        <mxCell id="dvbaHdl6vfWLZvP0uJvd-61" value="" style="endArrow=classic;html=1;rounded=0;" edge="1" parent="1">
          <mxGeometry width="50" height="50" relative="1" as="geometry">
            <mxPoint x="274" y="751" as="sourcePoint" />
            <mxPoint x="274" y="580" as="targetPoint" />
          </mxGeometry>
        </mxCell>
        <mxCell id="dvbaHdl6vfWLZvP0uJvd-62" value="txns will be &lt;br&gt;consumed&amp;nbsp;" style="text;html=1;align=center;verticalAlign=middle;resizable=0;points=[];autosize=1;strokeColor=none;fillColor=none;" vertex="1" parent="1">
          <mxGeometry x="317" y="688.5" width="80" height="40" as="geometry" />
        </mxCell>
        <mxCell id="dvbaHdl6vfWLZvP0uJvd-64" value="" style="endArrow=classic;html=1;rounded=0;" edge="1" parent="1">
          <mxGeometry width="50" height="50" relative="1" as="geometry">
            <mxPoint x="536.99" y="600" as="sourcePoint" />
            <mxPoint x="537" y="460" as="targetPoint" />
          </mxGeometry>
        </mxCell>
        <mxCell id="dvbaHdl6vfWLZvP0uJvd-65" value="watcher updates db" style="text;html=1;align=center;verticalAlign=middle;resizable=0;points=[];autosize=1;strokeColor=none;fillColor=none;" vertex="1" parent="1">
          <mxGeometry x="540" y="523" width="130" height="30" as="geometry" />
        </mxCell>
        <mxCell id="dvbaHdl6vfWLZvP0uJvd-67" value="Purchase rate factor" style="text;html=1;align=center;verticalAlign=middle;resizable=0;points=[];autosize=1;strokeColor=none;fillColor=none;" vertex="1" parent="1">
          <mxGeometry x="395" y="768" width="130" height="30" as="geometry" />
        </mxCell>
        <mxCell id="dvbaHdl6vfWLZvP0uJvd-68" value="Performance factor" style="text;html=1;align=center;verticalAlign=middle;resizable=0;points=[];autosize=1;strokeColor=none;fillColor=none;" vertex="1" parent="1">
          <mxGeometry x="300" y="380" width="130" height="30" as="geometry" />
        </mxCell>
        <mxCell id="dvbaHdl6vfWLZvP0uJvd-70" value="" style="ellipse;whiteSpace=wrap;html=1;aspect=fixed;fillColor=none;dashed=1;dashPattern=1 1;" vertex="1" parent="1">
          <mxGeometry x="556.5" y="491.5" width="97" height="97" as="geometry" />
        </mxCell>
        <mxCell id="dvbaHdl6vfWLZvP0uJvd-72" value="" style="endArrow=classic;html=1;rounded=0;" edge="1" parent="1">
          <mxGeometry width="50" height="50" relative="1" as="geometry">
            <mxPoint x="650" y="510" as="sourcePoint" />
            <mxPoint x="690" y="470" as="targetPoint" />
          </mxGeometry>
        </mxCell>
        <mxCell id="dvbaHdl6vfWLZvP0uJvd-73" value="What is the use of watcher updating&lt;br&gt;these points into db because api-server&lt;br&gt;never uses db to get the points details, it puts them&lt;br&gt;in redis and relies on redis&amp;nbsp;" style="text;html=1;align=center;verticalAlign=middle;resizable=0;points=[];autosize=1;strokeColor=none;fillColor=none;" vertex="1" parent="1">
          <mxGeometry x="690" y="390" width="290" height="70" as="geometry" />
        </mxCell>
        <mxCell id="dvbaHdl6vfWLZvP0uJvd-74" value="May be after the contest ? For storing past data&amp;nbsp;" style="text;html=1;align=center;verticalAlign=middle;resizable=0;points=[];autosize=1;strokeColor=none;fillColor=none;" vertex="1" parent="1">
          <mxGeometry x="700" y="491.5" width="280" height="30" as="geometry" />
        </mxCell>
      </root>
    </mxGraphModel>
  </diagram>
</mxfile>
